<?xml version="1.0" encoding="utf-8"?>
<!-- Generator: Adobe Illustrator 26.5.0, SVG Export Plug-In . SVG Version: 6.00 Build 0)  -->
<svg version="1.1" xmlns="http://www.w3.org/2000/svg" xmlns:xlink="http://www.w3.org/1999/xlink" x="0px" y="0px"
	 viewBox="0 0 600 600" style="enable-background:new 0 0 600 600;" xml:space="preserve">
<style type="text/css">
	.st0{fill:#F9A109;}
	.st1{fill:#FFFFFF;}
	.st2{fill:#EB5757;}
</style>
<g id="Capa_1">
</g>
<g id="Capa_2">
	<circle class="st0" cx="300" cy="300" r="292.5"/>
	<path class="st1" d="M118.2,90.9c-10,0-18.2,8.1-18.2,18.2s8.1,18.2,18.2,18.2V90.9z M158.6,109.1l17.8-3.6
		c-1.7-8.5-9.2-14.6-17.8-14.6V109.1z M148.8,152.9c2,9.8,11.6,16.2,21.4,14.2c9.8-2,16.2-11.6,14.2-21.4L148.8,152.9z M199,291.9
		c-10,0-18.2,8.1-18.2,18.2s8.1,18.2,18.2,18.2V291.9z M401,310v18.2c6.9,0,13.2-3.9,16.2-10L401,310z M481.8,149.3l16.2,8.2
		c2.8-5.6,2.5-12.3-0.8-17.7c-3.3-5.4-9.2-8.6-15.5-8.6V149.3z M166.7,131.1c-10,0-18.2,8.1-18.2,18.2c0,10,8.1,18.2,18.2,18.2
		V131.1z M181.2,313.6c2,9.8,11.6,16.2,21.4,14.2s16.2-11.6,14.2-21.4L181.2,313.6z M184.5,145.7c-2-9.8-11.6-16.2-21.4-14.2
		c-9.8,2-16.2,11.6-14.2,21.4L184.5,145.7z M211.8,322.9c7.1-7.1,7.1-18.6,0.1-25.7c-7.1-7.1-18.6-7.1-25.7-0.1L211.8,322.9z
		 M152.7,356.1l-12.8-12.9L152.7,356.1z M401,408.6c10,0,18.2-8.1,18.2-18.2c0-10-8.1-18.2-18.2-18.2V408.6z M401,390.4h-18.2
		c0,4.8,1.9,9.5,5.4,12.9L401,390.4z M441.4,430.6l-12.8,12.9c3.4,3.4,8,5.3,12.8,5.3V430.6z M239.4,430.6l-15.7-9.1
		c-1.6,2.8-2.5,5.9-2.5,9.1H239.4z M239.4,470.8h-18.2c0,3.2,0.8,6.4,2.5,9.1L239.4,470.8z M118.2,127.3h40.4V90.9h-40.4V127.3z
		 M140.8,112.7l8.1,40.2l35.7-7.2l-8.1-40.2L140.8,112.7z M199,328.2h202v-36.4H199V328.2z M417.3,318.2l80.8-160.8l-32.5-16.3
		l-80.8,160.8L417.3,318.2z M481.8,131.1H166.7v36.4h315.2V131.1z M216.8,306.5l-32.3-160.8l-35.7,7.2l32.3,160.8L216.8,306.5z
		 M186.2,297.2l-46.3,46.1l25.6,25.8l46.3-46.1L186.2,297.2z M139.8,343.2c-24.4,24.2-6.9,65.4,27.1,65.4v-36.4
		c-0.7,0-1-0.2-1.2-0.3c-0.2-0.2-0.5-0.5-0.7-0.9c-0.2-0.5-0.2-0.9-0.2-1.1c0-0.1,0.1-0.4,0.6-0.9L139.8,343.2z M166.9,408.6H401
		v-36.4H166.9V408.6z M419.2,390.4c0-12.1,9.9-22,22.2-22v-36.4c-32.3,0-58.6,26-58.6,58.4H419.2z M441.4,368.4
		c12.4,0,22.2,9.9,22.2,22H500c0-32.3-26.3-58.4-58.6-58.4V368.4z M463.6,390.4c0,12.1-9.9,22-22.2,22v36.4
		c32.3,0,58.6-26,58.6-58.4H463.6z M454.2,417.7l-40.4-40.2l-25.6,25.8l40.4,40.2L454.2,417.7z M255.1,439.7
		c5-8.6,15.3-12.9,25-10.3l9.4-35.1c-25.6-6.8-52.6,4.3-65.9,27.2L255.1,439.7z M280.2,429.5c9.8,2.6,16.4,11.4,16.4,21.3H333
		c0-26.5-17.9-49.6-43.4-56.4L280.2,429.5z M296.6,450.7c0,9.9-6.7,18.7-16.4,21.3l9.4,35.1c25.6-6.8,43.4-29.9,43.4-56.4H296.6z
		 M280.2,472c-9.8,2.6-20-1.7-25-10.3l-31.4,18.3c13.3,22.9,40.3,34,65.9,27.2L280.2,472z M257.6,470.8v-40.2h-36.4v40.2H257.6z"/>
	<circle class="st2" cx="496.2" cy="105" r="98"/>
</g>
</svg>
